<svg xmlns="http://www.w3.org/2000/svg" xmlns:xlink="http://www.w3.org/1999/xlink" width="203" zoomAndPan="magnify" viewBox="0 0 152.25 50.249999" height="67" preserveAspectRatio="xMidYMid meet" version="1.0"><defs><g/><clipPath id="424f4c1ba9"><path d="M 0.75 6.234375 L 33 6.234375 L 33 47.613281 L 0.75 47.613281 Z M 0.75 6.234375 " clip-rule="nonzero"/></clipPath></defs><path fill="#dc2625" d="M 17.714844 45.753906 C 17.824219 44.203125 17.542969 42.617188 17.523438 41.066406 C 17.492188 39.085938 17.171875 37.125 17.15625 35.140625 C 16.941406 35.132812 16.722656 35.125 16.511719 35.125 C 16.273438 35.125 16.035156 35.125 15.796875 35.121094 C 15.789062 35.140625 15.78125 35.160156 15.777344 35.179688 C 15.773438 35.199219 15.765625 35.222656 15.757812 35.246094 C 15.777344 35.3125 15.785156 35.382812 15.777344 35.453125 C 15.699219 36.371094 15.96875 37.304688 15.96875 38.226562 C 15.96875 39.195312 15.972656 40.167969 15.96875 41.136719 C 15.957031 42.910156 15.878906 44.679688 15.738281 46.449219 C 15.980469 46.449219 16.21875 46.449219 16.460938 46.441406 C 16.746094 46.4375 17.03125 46.417969 17.3125 46.375 C 17.398438 46.367188 17.480469 46.347656 17.558594 46.324219 C 17.585938 46.316406 17.613281 46.304688 17.640625 46.292969 C 17.699219 46.226562 17.769531 46.179688 17.847656 46.152344 C 17.746094 46.039062 17.699219 45.90625 17.714844 45.753906 Z M 17.714844 45.753906 " fill-opacity="1" fill-rule="nonzero"/><path fill="#ffffff" d="M 8.261719 12.246094 C 7.882812 12.257812 7.574219 12.363281 7.347656 12.6875 C 7.191406 12.910156 7.128906 13.15625 7.160156 13.429688 C 7.308594 13.480469 7.398438 13.585938 7.425781 13.742188 C 7.695312 14.84375 9.597656 14.269531 9.6875 13.308594 C 9.753906 12.617188 8.832031 12.230469 8.261719 12.246094 Z M 8.261719 12.246094 " fill-opacity="1" fill-rule="nonzero"/><path fill="#dc2625" d="M 14.257812 35.042969 C 13.871094 35.078125 13.414062 35.164062 13.003906 35.105469 C 12.988281 35.148438 12.972656 35.191406 12.960938 35.238281 C 12.902344 35.4375 12.855469 35.640625 12.808594 35.847656 C 12.742188 36.1875 12.652344 36.523438 12.542969 36.851562 C 12.117188 38.042969 11.738281 39.257812 11.242188 40.425781 C 10.765625 41.550781 10.285156 42.664062 9.75 43.765625 C 9.324219 44.644531 8.90625 45.527344 8.539062 46.429688 C 9.496094 46.414062 10.460938 46.398438 11.40625 46.550781 C 12.148438 44.472656 12.664062 42.324219 13.375 40.234375 C 13.953125 38.539062 14.050781 36.710938 14.722656 35.046875 C 14.566406 35.03125 14.414062 35.03125 14.257812 35.042969 Z M 14.257812 35.042969 " fill-opacity="1" fill-rule="nonzero"/><path fill="#dc2625" d="M 13.996094 10.480469 C 13.128906 8.609375 10.996094 7.367188 8.953125 7.324219 C 6.851562 7.277344 5.199219 8.511719 4.050781 10.195312 C 3.332031 11.261719 2.792969 12.539062 2.65625 13.816406 C 2.539062 14.953125 2.753906 16.019531 3.304688 17.019531 C 3.351562 17.070312 3.386719 17.132812 3.40625 17.199219 C 3.476562 17.320312 3.550781 17.4375 3.625 17.550781 C 3.691406 17.636719 3.71875 17.734375 3.71875 17.84375 C 4.125 18.457031 4.777344 18.902344 5.429688 19.222656 C 6.296875 19.648438 7.304688 19.988281 8.285156 19.976562 C 10.609375 19.949219 12.792969 18.492188 13.785156 16.398438 C 14.625 14.628906 14.835938 12.289062 13.996094 10.480469 Z M 6.761719 14.695312 C 6.742188 14.679688 6.726562 14.664062 6.710938 14.648438 C 5.675781 13.511719 6.222656 11.59375 7.78125 11.289062 C 8.925781 11.066406 10.554688 11.734375 10.679688 13.039062 C 10.863281 14.992188 7.8125 16.132812 6.761719 14.695312 Z M 6.761719 14.695312 " fill-opacity="1" fill-rule="nonzero"/><path fill="#ffffff" d="M 22.15625 12.246094 C 21.78125 12.257812 21.472656 12.363281 21.246094 12.6875 C 21.089844 12.910156 21.027344 13.15625 21.058594 13.429688 C 21.207031 13.480469 21.296875 13.585938 21.324219 13.742188 C 21.59375 14.84375 23.5 14.273438 23.589844 13.308594 C 23.652344 12.617188 22.730469 12.230469 22.15625 12.246094 Z M 22.15625 12.246094 " fill-opacity="1" fill-rule="nonzero"/><path fill="#dc2625" d="M 27.898438 10.480469 C 27.027344 8.609375 24.902344 7.367188 22.855469 7.324219 C 20.75 7.277344 19.097656 8.511719 17.949219 10.195312 C 17.230469 11.261719 16.691406 12.539062 16.554688 13.816406 C 16.4375 14.953125 16.652344 16.019531 17.203125 17.019531 C 17.25 17.070312 17.285156 17.132812 17.304688 17.203125 C 17.375 17.320312 17.445312 17.4375 17.523438 17.550781 C 17.585938 17.640625 17.617188 17.738281 17.613281 17.84375 C 18.019531 18.457031 18.675781 18.90625 19.324219 19.222656 C 20.195312 19.648438 21.203125 19.988281 22.183594 19.976562 C 24.507812 19.953125 26.6875 18.496094 27.683594 16.398438 C 28.523438 14.628906 28.738281 12.289062 27.898438 10.480469 Z M 20.660156 14.695312 C 20.644531 14.679688 20.628906 14.664062 20.613281 14.648438 C 19.574219 13.511719 20.121094 11.59375 21.679688 11.289062 C 22.828125 11.066406 24.457031 11.734375 24.578125 13.039062 C 24.765625 14.992188 21.710938 16.132812 20.660156 14.695312 Z M 20.660156 14.695312 " fill-opacity="1" fill-rule="nonzero"/><path fill="#dc2625" d="M 2.75 24.71875 L 2.730469 24.71875 C 2.621094 24.726562 2.515625 24.699219 2.425781 24.636719 L 2.367188 24.636719 C 2.242188 24.644531 2.113281 24.652344 1.988281 24.664062 L 1.816406 24.683594 C 1.777344 25.019531 1.828125 25.359375 1.871094 25.695312 C 2.1875 25.679688 2.527344 25.675781 2.8125 25.761719 C 2.800781 25.414062 2.785156 25.066406 2.75 24.71875 Z M 2.75 24.71875 " fill-opacity="1" fill-rule="nonzero"/><path fill="#dc2625" d="M 26.015625 19.777344 C 24.484375 20.796875 22.605469 21.238281 20.785156 20.800781 C 20.152344 20.652344 19.539062 20.441406 18.949219 20.164062 C 18.859375 20.289062 18.738281 20.347656 18.585938 20.339844 L 18.515625 20.339844 C 16.121094 20.339844 13.6875 20.21875 11.304688 20.519531 C 11.167969 20.542969 11.042969 20.507812 10.941406 20.414062 C 9.632812 20.992188 8.28125 21.121094 6.886719 20.800781 C 6.144531 20.628906 5.433594 20.367188 4.753906 20.015625 C 4.535156 20.195312 4.167969 20.210938 4.003906 19.929688 C 3.960938 19.945312 3.921875 19.957031 3.882812 19.972656 C 3.820312 20 3.761719 20.035156 3.710938 20.078125 C 3.492188 20.273438 3.296875 20.472656 3.238281 20.769531 C 3.113281 21.355469 3.261719 21.902344 3.386719 22.472656 C 3.527344 23.101562 3.636719 23.738281 3.707031 24.378906 C 3.855469 25.730469 3.871094 27.089844 3.746094 28.445312 C 3.65625 29.441406 3.351562 30.832031 4.546875 31.242188 C 5.53125 31.582031 6.648438 31.3125 7.644531 31.21875 C 10.535156 30.945312 13.378906 31.457031 16.261719 31.558594 C 17.746094 31.613281 19.253906 31.570312 20.738281 31.511719 C 22.066406 31.464844 23.476562 31.574219 24.753906 31.148438 C 25.128906 30.917969 25.492188 30.621094 25.574219 30.160156 C 25.660156 29.683594 25.5625 29.199219 25.464844 28.726562 C 25.433594 28.613281 25.453125 28.503906 25.515625 28.402344 C 25.496094 28.382812 25.472656 28.359375 25.445312 28.332031 C 25.320312 28.238281 25.261719 28.113281 25.273438 27.957031 C 25.265625 27.917969 25.261719 27.875 25.253906 27.839844 C 25.199219 27.515625 25.152344 27.1875 25.117188 26.859375 C 25.046875 26.207031 25.011719 25.550781 25.007812 24.894531 C 25.007812 24.761719 25.050781 24.648438 25.136719 24.546875 C 25.222656 24.449219 25.332031 24.390625 25.464844 24.375 C 25.699219 24 26.140625 23.6875 26.566406 23.65625 C 26.59375 22.34375 26.671875 20.945312 26.015625 19.777344 Z M 26.015625 19.777344 " fill-opacity="1" fill-rule="nonzero"/><path fill="#dc2625" d="M 31.328125 19.457031 C 31.300781 19.472656 31.277344 19.488281 31.269531 19.496094 C 31.082031 19.636719 30.90625 19.789062 30.742188 19.953125 C 30.257812 20.429688 29.800781 20.9375 29.375 21.46875 C 28.90625 22.03125 28.484375 22.628906 28.109375 23.257812 C 27.957031 23.515625 27.824219 23.78125 27.71875 24.058594 C 27.671875 24.1875 27.648438 24.320312 27.648438 24.453125 C 27.699219 24.933594 27.160156 25.09375 26.855469 24.890625 C 26.722656 24.867188 26.621094 24.800781 26.550781 24.683594 L 26.546875 24.675781 C 26.511719 24.695312 26.480469 24.71875 26.449219 24.746094 C 26.449219 24.746094 26.433594 24.757812 26.414062 24.777344 C 26.394531 24.796875 26.363281 24.835938 26.339844 24.863281 C 26.339844 24.871094 26.332031 24.878906 26.320312 24.898438 C 26.257812 25.03125 26.152344 25.113281 26.011719 25.148438 C 26.027344 26 26.105469 26.84375 26.242188 27.6875 C 26.261719 27.707031 26.28125 27.730469 26.296875 27.75 C 26.320312 27.777344 26.335938 27.808594 26.351562 27.835938 C 26.839844 27.871094 26.796875 27.519531 26.757812 27.109375 C 26.710938 26.597656 26.621094 26.105469 26.65625 25.589844 C 26.699219 24.945312 27.683594 25.144531 27.640625 25.78125 C 27.59375 26.460938 27.886719 27.140625 27.742188 27.820312 C 27.703125 28.023438 27.625 28.207031 27.5 28.371094 C 27.539062 28.375 27.574219 28.382812 27.609375 28.390625 C 28.738281 28.746094 29.335938 29.769531 30.105469 30.582031 C 30.433594 30.9375 30.800781 31.339844 31.1875 31.628906 C 31.394531 31.785156 31.386719 31.746094 31.402344 31.492188 C 31.421875 31.273438 31.398438 31.054688 31.394531 30.835938 C 31.386719 30.667969 31.449219 30.53125 31.582031 30.429688 C 31.601562 28.601562 31.660156 26.785156 31.667969 24.960938 C 31.671875 23.148438 31.914062 21.195312 31.328125 19.457031 Z M 31.328125 19.457031 " fill-opacity="1" fill-rule="nonzero"/><path fill="#dc2625" d="M 22.242188 40.398438 C 21.273438 38.753906 20.539062 36.878906 19.242188 35.453125 C 19.148438 35.351562 19.101562 35.230469 19.105469 35.089844 C 18.792969 35.144531 18.476562 35.167969 18.160156 35.167969 C 18.164062 35.527344 18.179688 35.882812 18.199219 36.238281 C 18.332031 36.222656 18.449219 36.261719 18.550781 36.351562 C 18.652344 36.4375 18.703125 36.550781 18.707031 36.683594 C 18.734375 37.242188 19.058594 37.742188 19.308594 38.226562 C 19.597656 38.785156 19.796875 39.386719 20.019531 39.972656 C 20.503906 41.246094 21.011719 42.507812 21.632812 43.71875 C 21.859375 44.144531 22.046875 44.582031 22.203125 45.035156 C 22.269531 45.238281 22.328125 45.445312 22.410156 45.644531 C 22.449219 45.757812 22.503906 45.867188 22.566406 45.976562 C 22.933594 46.03125 23.351562 45.75 23.699219 45.648438 C 24.074219 45.554688 24.457031 45.515625 24.84375 45.527344 C 23.929688 43.835938 23.21875 42.046875 22.242188 40.398438 Z M 22.242188 40.398438 " fill-opacity="1" fill-rule="nonzero"/><path fill="#dc2625" d="M 19.367188 32.699219 C 19.335938 32.652344 19.3125 32.605469 19.296875 32.550781 C 18.429688 32.566406 17.5625 32.566406 16.691406 32.566406 C 15.347656 32.566406 14.019531 32.4375 12.6875 32.324219 C 12.714844 32.554688 12.734375 32.789062 12.765625 33.019531 C 12.789062 33.273438 12.835938 33.519531 12.914062 33.761719 C 12.9375 33.84375 12.96875 33.925781 13.011719 34 C 13.046875 34.050781 13.109375 34.089844 13.070312 34.089844 C 13.492188 34.164062 13.929688 34.039062 14.355469 34.03125 C 14.996094 34.015625 15.644531 34.121094 16.285156 34.121094 C 17.164062 34.121094 18.0625 34.238281 18.933594 34.097656 C 19.0625 34.089844 19.1875 34.054688 19.308594 33.996094 C 19.28125 34.007812 19.335938 33.921875 19.34375 33.882812 C 19.367188 33.78125 19.382812 33.679688 19.390625 33.574219 C 19.398438 33.28125 19.394531 32.992188 19.367188 32.699219 Z M 19.367188 32.699219 " fill-opacity="1" fill-rule="nonzero"/><path fill="#030303" d="M 24.578125 13.039062 C 24.457031 11.734375 22.828125 11.066406 21.679688 11.289062 C 20.121094 11.59375 19.574219 13.511719 20.613281 14.648438 C 20.628906 14.664062 20.644531 14.679688 20.660156 14.695312 C 21.710938 16.132812 24.765625 14.992188 24.578125 13.039062 Z M 23.585938 13.3125 C 23.496094 14.269531 21.59375 14.847656 21.328125 13.742188 C 21.296875 13.585938 21.210938 13.484375 21.058594 13.429688 C 21.027344 13.160156 21.089844 12.914062 21.246094 12.691406 C 21.472656 12.363281 21.78125 12.261719 22.160156 12.25 C 22.730469 12.230469 23.652344 12.617188 23.589844 13.308594 Z M 23.585938 13.3125 " fill-opacity="1" fill-rule="nonzero"/><g clip-path="url(#424f4c1ba9)"><path fill="#030303" d="M 32.277344 19.125 C 32.222656 18.941406 32.101562 18.832031 31.910156 18.804688 C 31.890625 18.707031 31.84375 18.621094 31.773438 18.550781 C 31.367188 18.136719 30.769531 18.597656 30.445312 18.875 C 29.851562 19.398438 29.300781 19.96875 28.800781 20.582031 C 28.355469 21.113281 27.941406 21.667969 27.5625 22.246094 C 27.53125 21.1875 27.386719 20.152344 26.832031 19.191406 C 26.824219 19.179688 26.816406 19.171875 26.808594 19.160156 C 29.773438 16.519531 30.476562 11.292969 27.605469 8.339844 C 26.433594 7.148438 24.683594 6.441406 23.035156 6.332031 C 21.476562 6.234375 20 6.757812 18.804688 7.75 C 17.390625 8.917969 16.421875 10.546875 15.863281 12.277344 C 15.570312 13.164062 15.472656 14.070312 15.5625 15 C 15.65625 15.929688 15.929688 16.796875 16.386719 17.609375 C 16.621094 18.300781 17.066406 18.871094 17.625 19.332031 C 15.96875 19.316406 14.300781 19.273438 12.648438 19.382812 L 12.65625 19.375 C 15.832031 16.820312 16.65625 11.375 13.699219 8.339844 C 12.535156 7.144531 10.785156 6.441406 9.136719 6.332031 C 7.582031 6.234375 6.105469 6.757812 4.910156 7.75 C 3.488281 8.921875 2.523438 10.546875 1.964844 12.277344 C 1.671875 13.164062 1.570312 14.074219 1.664062 15.003906 C 1.753906 15.929688 2.03125 16.800781 2.488281 17.613281 C 2.691406 18.191406 3.015625 18.6875 3.460938 19.101562 C 3.203125 19.230469 2.96875 19.390625 2.761719 19.59375 C 1.964844 20.386719 2.144531 21.679688 2.402344 22.652344 C 2.488281 22.976562 2.558594 23.3125 2.613281 23.648438 C 2.191406 23.578125 1.644531 23.710938 1.285156 23.71875 C 0.90625 23.722656 0.777344 24.074219 0.867188 24.355469 C 0.847656 24.398438 0.835938 24.445312 0.832031 24.492188 C 0.753906 25.09375 0.898438 25.667969 0.914062 26.269531 C 0.921875 26.554688 1.191406 26.734375 1.453125 26.730469 C 1.679688 26.726562 2.4375 26.5625 2.550781 26.785156 C 2.605469 26.90625 2.695312 26.984375 2.824219 27.015625 C 2.804688 27.570312 2.746094 28.125 2.730469 28.683594 C 2.722656 29.253906 2.613281 29.808594 2.679688 30.382812 C 2.960938 32.9375 6.1875 32.351562 7.925781 32.207031 C 9.179688 32.101562 10.425781 32.152344 11.667969 32.246094 C 11.773438 32.957031 11.730469 33.929688 12.125 34.546875 C 11.859375 35.011719 11.804688 35.753906 11.707031 36.164062 C 11.4375 37.285156 10.960938 38.417969 10.539062 39.492188 C 9.582031 41.949219 8.253906 44.246094 7.347656 46.722656 C 7.210938 47.089844 7.425781 47.445312 7.835938 47.445312 C 9.097656 47.445312 10.378906 47.351562 11.625 47.621094 C 11.824219 47.664062 12.09375 47.554688 12.171875 47.351562 C 12.960938 45.230469 13.585938 43.0625 14.21875 40.890625 C 14.503906 39.910156 14.753906 38.941406 14.960938 37.941406 L 14.960938 37.949219 C 14.980469 38.921875 14.960938 39.898438 14.960938 40.871094 C 14.960938 42.867188 14.875 44.859375 14.695312 46.847656 C 14.664062 47.191406 14.878906 47.445312 15.226562 47.445312 C 15.824219 47.445312 16.421875 47.460938 17.019531 47.417969 C 17.59375 47.375 18.304688 47.296875 18.511719 46.675781 C 18.5625 46.542969 18.550781 46.417969 18.46875 46.300781 C 18.617188 46.230469 18.691406 46.109375 18.691406 45.945312 C 18.808594 44.351562 18.527344 42.75 18.515625 41.15625 C 18.515625 40.3125 18.453125 39.46875 18.378906 38.625 C 18.667969 39.222656 18.890625 39.84375 19.128906 40.46875 C 19.414062 41.214844 19.710938 41.957031 20.027344 42.691406 C 20.324219 43.378906 20.699219 44.03125 20.992188 44.722656 C 21.316406 45.476562 21.464844 46.824219 22.453125 46.972656 C 22.96875 47.050781 23.476562 46.777344 23.945312 46.617188 C 24.273438 46.507812 24.703125 46.542969 25.042969 46.535156 C 25.363281 46.527344 25.679688 46.59375 25.910156 46.320312 C 25.96875 46.246094 26.003906 46.164062 26.015625 46.070312 C 26.085938 45.949219 26.101562 45.820312 26.058594 45.683594 C 26.023438 45.566406 25.964844 45.460938 25.886719 45.367188 C 24.859375 43.566406 24.101562 41.632812 23.0625 39.839844 C 22.070312 38.125 21.277344 36.25 19.945312 34.761719 C 20.503906 34.277344 20.402344 33.285156 20.351562 32.53125 C 20.625 32.523438 20.894531 32.515625 21.164062 32.503906 C 22.492188 32.453125 23.835938 32.527344 25.113281 32.089844 C 25.167969 32.070312 25.21875 32.042969 25.265625 32.007812 C 25.828125 31.664062 26.308594 31.199219 26.496094 30.546875 C 26.660156 29.980469 26.597656 29.394531 26.488281 28.824219 C 26.683594 28.816406 26.871094 28.773438 27.050781 28.699219 C 27.011719 28.839844 27.027344 28.976562 27.101562 29.105469 C 27.171875 29.238281 27.28125 29.324219 27.421875 29.367188 C 28.035156 29.558594 28.5 30.214844 28.894531 30.6875 C 29.300781 31.179688 29.75 31.609375 30.195312 32.0625 C 30.609375 32.488281 31.222656 32.957031 31.832031 32.601562 C 32.222656 32.375 32.351562 32.007812 32.390625 31.609375 C 32.523438 31.507812 32.585938 31.371094 32.582031 31.207031 C 32.582031 29.09375 32.664062 26.984375 32.671875 24.875 C 32.675781 22.972656 32.898438 20.960938 32.277344 19.125 Z M 1.871094 25.699219 C 1.828125 25.359375 1.777344 25.023438 1.816406 24.6875 L 1.988281 24.667969 C 2.113281 24.65625 2.242188 24.644531 2.367188 24.640625 L 2.425781 24.640625 C 2.515625 24.703125 2.621094 24.730469 2.730469 24.71875 L 2.75 24.71875 C 2.78125 25.066406 2.800781 25.417969 2.8125 25.765625 C 2.527344 25.679688 2.1875 25.679688 1.871094 25.699219 Z M 17.617188 17.84375 C 17.617188 17.734375 17.585938 17.636719 17.523438 17.550781 C 17.445312 17.433594 17.375 17.316406 17.304688 17.199219 C 17.285156 17.132812 17.25 17.070312 17.203125 17.015625 C 16.652344 16.019531 16.4375 14.949219 16.554688 13.816406 C 16.691406 12.539062 17.230469 11.253906 17.949219 10.195312 C 19.097656 8.511719 20.75 7.277344 22.855469 7.324219 C 24.902344 7.367188 27.027344 8.609375 27.898438 10.480469 C 28.738281 12.289062 28.523438 14.628906 27.6875 16.394531 C 26.691406 18.496094 24.507812 19.949219 22.183594 19.976562 C 21.203125 19.988281 20.195312 19.648438 19.328125 19.222656 C 18.675781 18.902344 18.023438 18.453125 17.617188 17.84375 Z M 3.40625 17.203125 C 3.386719 17.136719 3.351562 17.074219 3.304688 17.023438 C 2.753906 16.019531 2.535156 14.953125 2.65625 13.816406 C 2.792969 12.539062 3.332031 11.261719 4.050781 10.195312 C 5.199219 8.511719 6.851562 7.277344 8.953125 7.324219 C 11 7.367188 13.128906 8.609375 13.996094 10.480469 C 14.835938 12.289062 14.625 14.628906 13.785156 16.394531 C 12.789062 18.496094 10.605469 19.949219 8.28125 19.976562 C 7.304688 19.988281 6.292969 19.648438 5.425781 19.222656 C 4.777344 18.902344 4.121094 18.453125 3.714844 17.84375 C 3.71875 17.734375 3.6875 17.636719 3.625 17.550781 C 3.550781 17.433594 3.476562 17.316406 3.40625 17.199219 Z M 13.375 40.238281 C 12.664062 42.328125 12.148438 44.472656 11.40625 46.550781 C 10.460938 46.402344 9.496094 46.417969 8.539062 46.429688 C 8.902344 45.527344 9.324219 44.648438 9.75 43.769531 C 10.285156 42.667969 10.765625 41.554688 11.242188 40.429688 C 11.738281 39.257812 12.117188 38.046875 12.542969 36.851562 C 12.652344 36.523438 12.742188 36.1875 12.808594 35.847656 C 12.855469 35.644531 12.902344 35.441406 12.960938 35.238281 C 12.972656 35.195312 12.988281 35.148438 13.003906 35.105469 C 13.414062 35.167969 13.871094 35.082031 14.257812 35.046875 C 14.414062 35.035156 14.566406 35.035156 14.722656 35.046875 C 14.050781 36.710938 13.953125 38.546875 13.375 40.238281 Z M 17.640625 46.285156 C 17.613281 46.300781 17.585938 46.308594 17.558594 46.320312 C 17.480469 46.34375 17.398438 46.363281 17.3125 46.371094 C 17.03125 46.410156 16.746094 46.433594 16.460938 46.4375 C 16.21875 46.449219 15.980469 46.449219 15.738281 46.445312 C 15.878906 44.679688 15.957031 42.90625 15.96875 41.132812 C 15.972656 40.164062 15.96875 39.191406 15.96875 38.222656 C 15.96875 37.296875 15.699219 36.367188 15.777344 35.445312 C 15.785156 35.375 15.777344 35.308594 15.757812 35.238281 C 15.765625 35.21875 15.773438 35.195312 15.777344 35.171875 C 15.78125 35.15625 15.789062 35.136719 15.796875 35.117188 C 16.035156 35.117188 16.273438 35.117188 16.511719 35.121094 C 16.722656 35.121094 16.941406 35.128906 17.15625 35.136719 C 17.167969 37.117188 17.492188 39.082031 17.523438 41.0625 C 17.542969 42.613281 17.824219 44.199219 17.714844 45.75 C 17.699219 45.902344 17.746094 46.035156 17.847656 46.148438 C 17.769531 46.175781 17.699219 46.222656 17.640625 46.285156 Z M 16.289062 34.121094 C 15.652344 34.121094 14.996094 34.015625 14.359375 34.027344 C 13.933594 34.039062 13.496094 34.160156 13.074219 34.089844 C 13.113281 34.089844 13.050781 34.050781 13.015625 34 C 12.972656 33.921875 12.941406 33.84375 12.917969 33.761719 C 12.839844 33.519531 12.792969 33.273438 12.769531 33.019531 C 12.738281 32.789062 12.714844 32.554688 12.691406 32.324219 C 14.019531 32.4375 15.351562 32.566406 16.695312 32.566406 C 17.5625 32.566406 18.433594 32.566406 19.300781 32.550781 C 19.316406 32.605469 19.339844 32.652344 19.371094 32.699219 C 19.398438 32.988281 19.402344 33.28125 19.394531 33.574219 C 19.386719 33.675781 19.371094 33.78125 19.351562 33.882812 C 19.34375 33.921875 19.285156 34.003906 19.3125 33.992188 C 19.195312 34.054688 19.070312 34.085938 18.9375 34.097656 C 18.0625 34.234375 17.164062 34.121094 16.289062 34.121094 Z M 22.246094 40.398438 C 23.21875 42.046875 23.933594 43.835938 24.847656 45.523438 C 24.460938 45.511719 24.078125 45.550781 23.703125 45.644531 C 23.355469 45.746094 22.9375 46.027344 22.566406 45.972656 C 22.507812 45.867188 22.453125 45.753906 22.414062 45.640625 C 22.332031 45.441406 22.273438 45.234375 22.207031 45.03125 C 22.050781 44.578125 21.863281 44.140625 21.636719 43.714844 C 21.015625 42.503906 20.507812 41.242188 20.023438 39.96875 C 19.800781 39.382812 19.601562 38.785156 19.3125 38.222656 C 19.0625 37.738281 18.738281 37.242188 18.710938 36.683594 C 18.707031 36.546875 18.65625 36.433594 18.554688 36.347656 C 18.453125 36.257812 18.335938 36.21875 18.203125 36.234375 C 18.183594 35.878906 18.167969 35.523438 18.164062 35.164062 C 18.480469 35.164062 18.796875 35.140625 19.109375 35.085938 C 19.105469 35.226562 19.152344 35.347656 19.246094 35.449219 C 20.539062 36.878906 21.273438 38.753906 22.242188 40.398438 Z M 25.46875 24.378906 C 25.335938 24.390625 25.226562 24.449219 25.140625 24.546875 C 25.050781 24.648438 25.007812 24.761719 25.011719 24.894531 C 25.011719 25.554688 25.046875 26.210938 25.113281 26.863281 C 25.148438 27.191406 25.199219 27.519531 25.25 27.84375 C 25.257812 27.882812 25.265625 27.921875 25.269531 27.960938 C 25.257812 28.117188 25.316406 28.242188 25.441406 28.335938 C 25.46875 28.363281 25.492188 28.390625 25.511719 28.40625 C 25.449219 28.507812 25.433594 28.617188 25.460938 28.730469 C 25.558594 29.203125 25.65625 29.6875 25.570312 30.167969 C 25.492188 30.621094 25.125 30.921875 24.75 31.152344 C 23.472656 31.578125 22.066406 31.46875 20.734375 31.519531 C 19.25 31.574219 17.746094 31.617188 16.257812 31.5625 C 13.378906 31.460938 10.53125 30.945312 7.644531 31.222656 C 6.640625 31.3125 5.527344 31.589844 4.546875 31.246094 C 3.351562 30.835938 3.652344 29.445312 3.746094 28.449219 C 3.867188 27.09375 3.851562 25.738281 3.707031 24.382812 C 3.632812 23.742188 3.523438 23.105469 3.382812 22.476562 C 3.257812 21.90625 3.109375 21.359375 3.234375 20.773438 C 3.292969 20.476562 3.488281 20.277344 3.707031 20.082031 C 3.757812 20.039062 3.816406 20.003906 3.878906 19.976562 C 3.917969 19.960938 3.960938 19.949219 4 19.933594 C 4.164062 20.21875 4.535156 20.203125 4.753906 20.019531 C 5.429688 20.371094 6.140625 20.632812 6.882812 20.804688 C 8.277344 21.125 9.628906 20.996094 10.9375 20.417969 C 11.042969 20.511719 11.164062 20.546875 11.300781 20.527344 C 13.683594 20.222656 16.113281 20.34375 18.511719 20.34375 L 18.582031 20.34375 C 18.738281 20.351562 18.859375 20.292969 18.949219 20.167969 C 19.539062 20.445312 20.148438 20.65625 20.78125 20.808594 C 22.601562 21.238281 24.480469 20.808594 26.011719 19.78125 C 26.671875 20.949219 26.59375 22.347656 26.558594 23.660156 C 26.144531 23.691406 25.699219 24 25.464844 24.378906 Z M 31.671875 24.953125 C 31.667969 26.777344 31.605469 28.597656 31.589844 30.417969 C 31.457031 30.523438 31.394531 30.660156 31.402344 30.828125 C 31.402344 31.046875 31.425781 31.265625 31.410156 31.484375 C 31.390625 31.738281 31.402344 31.777344 31.195312 31.621094 C 30.808594 31.328125 30.441406 30.925781 30.109375 30.574219 C 29.34375 29.753906 28.746094 28.734375 27.617188 28.382812 C 27.582031 28.371094 27.542969 28.363281 27.507812 28.359375 C 27.632812 28.195312 27.710938 28.015625 27.75 27.8125 C 27.894531 27.132812 27.601562 26.453125 27.648438 25.773438 C 27.691406 25.136719 26.707031 24.9375 26.664062 25.582031 C 26.628906 26.09375 26.714844 26.589844 26.765625 27.097656 C 26.804688 27.515625 26.847656 27.863281 26.355469 27.828125 C 26.34375 27.796875 26.324219 27.769531 26.304688 27.742188 C 26.289062 27.71875 26.269531 27.699219 26.246094 27.675781 C 26.113281 26.835938 26.035156 25.992188 26.019531 25.144531 C 26.160156 25.105469 26.261719 25.023438 26.328125 24.894531 C 26.339844 24.875 26.34375 24.863281 26.347656 24.859375 C 26.371094 24.828125 26.394531 24.800781 26.417969 24.773438 C 26.445312 24.746094 26.449219 24.742188 26.453125 24.738281 C 26.484375 24.714844 26.519531 24.691406 26.550781 24.671875 L 26.558594 24.675781 C 26.625 24.792969 26.726562 24.863281 26.859375 24.882812 C 27.167969 25.089844 27.703125 24.925781 27.65625 24.449219 C 27.65625 24.3125 27.679688 24.179688 27.726562 24.050781 C 27.832031 23.773438 27.960938 23.507812 28.117188 23.253906 C 28.488281 22.625 28.910156 22.027344 29.378906 21.464844 C 29.804688 20.929688 30.261719 20.425781 30.75 19.945312 C 30.914062 19.78125 31.089844 19.628906 31.273438 19.492188 C 31.285156 19.484375 31.308594 19.46875 31.335938 19.453125 C 31.914062 21.195312 31.671875 23.148438 31.667969 24.949219 Z M 31.671875 24.953125 " fill-opacity="1" fill-rule="nonzero"/></g><path fill="#030303" d="M 10.679688 13.039062 C 10.554688 11.734375 8.925781 11.066406 7.78125 11.289062 C 6.222656 11.59375 5.675781 13.511719 6.710938 14.648438 C 6.726562 14.664062 6.742188 14.679688 6.761719 14.695312 C 7.8125 16.132812 10.863281 14.992188 10.679688 13.039062 Z M 9.6875 13.3125 C 9.597656 14.269531 7.695312 14.847656 7.425781 13.742188 C 7.398438 13.585938 7.308594 13.484375 7.160156 13.429688 C 7.128906 13.160156 7.191406 12.914062 7.347656 12.691406 C 7.570312 12.363281 7.878906 12.261719 8.261719 12.25 C 8.832031 12.230469 9.753906 12.617188 9.6875 13.308594 Z M 9.6875 13.3125 " fill-opacity="1" fill-rule="nonzero"/><g fill="#ffffff" fill-opacity="1"><g transform="translate(38.935918, 32.206614)"><g><path d="M 21.03125 -15.625 C 21.363281 -12.757812 21.25 -9.894531 20.6875 -7.03125 C 20.507812 -6.25 20.304688 -5.445312 20.078125 -4.625 C 19.859375 -3.800781 19.554688 -3.015625 19.171875 -2.265625 C 18.796875 -1.515625 18.3125 -0.84375 17.71875 -0.25 C 17.132812 0.3125 16.46875 0.722656 15.71875 0.984375 C 14.96875 1.253906 14.203125 1.347656 13.421875 1.265625 C 12.648438 1.179688 11.921875 0.898438 11.234375 0.421875 C 10.859375 0.160156 10.53125 -0.148438 10.25 -0.515625 C 9.601562 -0.015625 8.894531 0.316406 8.125 0.484375 C 7.351562 0.648438 6.582031 0.597656 5.8125 0.328125 C 5.050781 0.0664062 4.335938 -0.46875 3.671875 -1.28125 C 3.140625 -1.925781 2.726562 -2.660156 2.4375 -3.484375 C 2.15625 -4.304688 1.953125 -5.15625 1.828125 -6.03125 C 1.710938 -6.90625 1.613281 -7.75 1.53125 -8.5625 C 1.40625 -9.988281 1.390625 -11.410156 1.484375 -12.828125 C 1.578125 -14.253906 1.753906 -15.675781 2.015625 -17.09375 C 2.109375 -17.625 2.320312 -18.015625 2.65625 -18.265625 C 2.988281 -18.515625 3.375 -18.632812 3.8125 -18.625 C 4.25 -18.613281 4.65625 -18.5 5.03125 -18.28125 C 5.414062 -18.0625 5.71875 -17.753906 5.9375 -17.359375 C 6.15625 -16.960938 6.21875 -16.5 6.125 -15.96875 C 5.851562 -14.5 5.703125 -13.023438 5.671875 -11.546875 C 5.648438 -10.066406 5.757812 -8.597656 6 -7.140625 C 6.039062 -6.890625 6.097656 -6.515625 6.171875 -6.015625 C 6.242188 -5.515625 6.359375 -5.039062 6.515625 -4.59375 C 6.679688 -4.144531 6.921875 -3.863281 7.234375 -3.75 C 7.515625 -3.65625 7.742188 -3.6875 7.921875 -3.84375 C 8.097656 -4.007812 8.234375 -4.238281 8.328125 -4.53125 C 8.429688 -4.832031 8.5 -5.128906 8.53125 -5.421875 C 8.570312 -5.710938 8.582031 -5.945312 8.5625 -6.125 C 8.519531 -6.664062 8.632812 -7.101562 8.90625 -7.4375 C 9.1875 -7.769531 9.53125 -7.988281 9.9375 -8.09375 C 10.351562 -8.195312 10.773438 -8.191406 11.203125 -8.078125 C 11.628906 -7.960938 12 -7.738281 12.3125 -7.40625 C 12.625 -7.082031 12.796875 -6.65625 12.828125 -6.125 C 12.828125 -5.90625 12.84375 -5.609375 12.875 -5.234375 C 12.90625 -4.859375 12.960938 -4.484375 13.046875 -4.109375 C 13.128906 -3.742188 13.269531 -3.453125 13.46875 -3.234375 C 13.664062 -3.015625 13.9375 -2.941406 14.28125 -3.015625 C 14.664062 -3.128906 14.972656 -3.382812 15.203125 -3.78125 C 15.441406 -4.175781 15.628906 -4.609375 15.765625 -5.078125 C 15.898438 -5.554688 16.015625 -5.953125 16.109375 -6.265625 C 16.546875 -7.796875 16.8125 -9.34375 16.90625 -10.90625 C 17 -12.476562 16.953125 -14.050781 16.765625 -15.625 C 16.703125 -16.175781 16.789062 -16.609375 17.03125 -16.921875 C 17.28125 -17.242188 17.609375 -17.457031 18.015625 -17.5625 C 18.429688 -17.664062 18.859375 -17.664062 19.296875 -17.5625 C 19.734375 -17.457031 20.113281 -17.242188 20.4375 -16.921875 C 20.769531 -16.609375 20.96875 -16.175781 21.03125 -15.625 Z M 21.03125 -15.625 "/></g></g></g><g fill="#ffffff" fill-opacity="1"><g transform="translate(61.582452, 32.206614)"><g><path d="M 14.734375 -12.484375 C 14.796875 -10.585938 14.84375 -8.691406 14.875 -6.796875 C 14.914062 -4.898438 14.960938 -3.003906 15.015625 -1.109375 C 15.035156 -0.554688 14.90625 -0.113281 14.625 0.21875 C 14.34375 0.550781 13.992188 0.769531 13.578125 0.875 C 13.160156 0.976562 12.738281 0.972656 12.3125 0.859375 C 11.882812 0.742188 11.519531 0.523438 11.21875 0.203125 C 10.925781 -0.117188 10.769531 -0.554688 10.75 -1.109375 C 10.738281 -1.679688 10.726562 -2.25 10.71875 -2.8125 C 10.707031 -3.382812 10.691406 -3.957031 10.671875 -4.53125 L 6.40625 -4.671875 C 6.25 -3.960938 6.101562 -3.25 5.96875 -2.53125 C 5.84375 -1.8125 5.710938 -1.09375 5.578125 -0.375 C 5.484375 0.15625 5.269531 0.546875 4.9375 0.796875 C 4.601562 1.046875 4.21875 1.171875 3.78125 1.171875 C 3.34375 1.171875 2.929688 1.054688 2.546875 0.828125 C 2.160156 0.597656 1.859375 0.285156 1.640625 -0.109375 C 1.421875 -0.515625 1.359375 -0.984375 1.453125 -1.515625 C 1.796875 -3.367188 2.179688 -5.207031 2.609375 -7.03125 C 3.035156 -8.851562 3.632812 -10.625 4.40625 -12.34375 C 4.789062 -13.195312 5.273438 -14.117188 5.859375 -15.109375 C 6.453125 -16.097656 7.117188 -17.003906 7.859375 -17.828125 C 8.609375 -18.648438 9.441406 -19.257812 10.359375 -19.65625 C 11.210938 -20.019531 11.90625 -20.085938 12.4375 -19.859375 C 12.96875 -19.628906 13.382812 -19.210938 13.6875 -18.609375 C 13.988281 -18.015625 14.207031 -17.335938 14.34375 -16.578125 C 14.488281 -15.828125 14.582031 -15.082031 14.625 -14.34375 C 14.675781 -13.601562 14.710938 -12.984375 14.734375 -12.484375 Z M 7.734375 -9.359375 C 7.710938 -9.285156 7.6875 -9.207031 7.65625 -9.125 C 7.632812 -9.050781 7.601562 -8.976562 7.5625 -8.90625 C 8.082031 -8.882812 8.585938 -8.863281 9.078125 -8.84375 C 9.566406 -8.832031 10.0625 -8.816406 10.5625 -8.796875 C 10.539062 -9.398438 10.523438 -10.007812 10.515625 -10.625 C 10.503906 -11.238281 10.488281 -11.859375 10.46875 -12.484375 C 10.445312 -12.734375 10.4375 -12.992188 10.4375 -13.265625 C 10.4375 -13.546875 10.4375 -13.828125 10.4375 -14.109375 C 10.113281 -13.734375 9.835938 -13.363281 9.609375 -13 C 9.234375 -12.4375 8.890625 -11.847656 8.578125 -11.234375 C 8.265625 -10.628906 7.984375 -10.003906 7.734375 -9.359375 Z M 7.734375 -9.359375 "/></g></g></g><g fill="#ffffff" fill-opacity="1"><g transform="translate(78.02679, 32.206614)"><g><path d="M 12.96875 -19.578125 C 13.5 -19.515625 13.925781 -19.316406 14.25 -18.984375 C 14.570312 -18.660156 14.789062 -18.28125 14.90625 -17.84375 C 15.019531 -17.40625 15.019531 -16.984375 14.90625 -16.578125 C 14.789062 -16.171875 14.570312 -15.84375 14.25 -15.59375 C 13.925781 -15.34375 13.5 -15.257812 12.96875 -15.34375 C 12.082031 -15.445312 11.175781 -15.53125 10.25 -15.59375 C 10.113281 -13.507812 9.984375 -11.429688 9.859375 -9.359375 C 9.734375 -7.296875 9.601562 -5.226562 9.46875 -3.15625 C 9.457031 -2.601562 9.289062 -2.160156 8.96875 -1.828125 C 8.65625 -1.503906 8.285156 -1.289062 7.859375 -1.1875 C 7.441406 -1.082031 7.019531 -1.082031 6.59375 -1.1875 C 6.175781 -1.289062 5.832031 -1.503906 5.5625 -1.828125 C 5.300781 -2.160156 5.179688 -2.601562 5.203125 -3.15625 C 5.335938 -5.226562 5.46875 -7.304688 5.59375 -9.390625 C 5.71875 -11.472656 5.84375 -13.550781 5.96875 -15.625 C 5.113281 -15.601562 4.28125 -15.546875 3.46875 -15.453125 C 2.914062 -15.410156 2.472656 -15.515625 2.140625 -15.765625 C 1.816406 -16.015625 1.601562 -16.347656 1.5 -16.765625 C 1.394531 -17.179688 1.394531 -17.601562 1.5 -18.03125 C 1.613281 -18.46875 1.832031 -18.84375 2.15625 -19.15625 C 2.476562 -19.46875 2.914062 -19.65625 3.46875 -19.71875 C 6.632812 -20.039062 9.800781 -19.992188 12.96875 -19.578125 Z M 12.96875 -19.578125 "/></g></g></g><g fill="#ffffff" fill-opacity="1"><g transform="translate(94.442679, 32.206614)"><g><path d="M 10.609375 -12.296875 C 11.671875 -11.566406 12.507812 -10.625 13.125 -9.46875 C 13.75 -8.3125 13.992188 -7.082031 13.859375 -5.78125 C 13.722656 -4.632812 13.332031 -3.65625 12.6875 -2.84375 C 12.039062 -2.03125 11.25 -1.394531 10.3125 -0.9375 C 9.375 -0.476562 8.378906 -0.222656 7.328125 -0.171875 C 6.273438 -0.128906 5.265625 -0.304688 4.296875 -0.703125 C 3.328125 -1.109375 2.507812 -1.753906 1.84375 -2.640625 C 1.507812 -3.078125 1.367188 -3.5 1.421875 -3.90625 C 1.484375 -4.320312 1.660156 -4.679688 1.953125 -4.984375 C 2.242188 -5.285156 2.609375 -5.492188 3.046875 -5.609375 C 3.484375 -5.734375 3.921875 -5.738281 4.359375 -5.625 C 4.804688 -5.519531 5.191406 -5.25 5.515625 -4.8125 C 5.671875 -4.601562 5.957031 -4.484375 6.375 -4.453125 C 6.789062 -4.421875 7.207031 -4.4375 7.625 -4.5 C 8.039062 -4.570312 8.332031 -4.644531 8.5 -4.71875 C 8.90625 -4.90625 9.207031 -5.1875 9.40625 -5.5625 C 9.601562 -5.9375 9.671875 -6.335938 9.609375 -6.765625 C 9.554688 -7.296875 9.367188 -7.734375 9.046875 -8.078125 C 8.722656 -8.421875 8.335938 -8.71875 7.890625 -8.96875 C 7.453125 -9.226562 7.003906 -9.476562 6.546875 -9.71875 C 6.085938 -9.957031 5.6875 -10.21875 5.34375 -10.5 C 4.394531 -11.332031 3.816406 -12.238281 3.609375 -13.21875 C 3.398438 -14.195312 3.472656 -15.171875 3.828125 -16.140625 C 4.179688 -17.117188 4.726562 -18.003906 5.46875 -18.796875 C 6.207031 -19.597656 7.050781 -20.21875 8 -20.65625 C 8.507812 -20.90625 8.984375 -20.972656 9.421875 -20.859375 C 9.859375 -20.742188 10.234375 -20.53125 10.546875 -20.21875 C 10.859375 -19.90625 11.070312 -19.539062 11.1875 -19.125 C 11.300781 -18.707031 11.28125 -18.300781 11.125 -17.90625 C 10.96875 -17.519531 10.644531 -17.210938 10.15625 -16.984375 C 9.832031 -16.835938 9.457031 -16.628906 9.03125 -16.359375 C 8.601562 -16.097656 8.25 -15.78125 7.96875 -15.40625 C 7.695312 -15.039062 7.648438 -14.628906 7.828125 -14.171875 C 7.921875 -13.867188 8.140625 -13.609375 8.484375 -13.390625 C 8.835938 -13.171875 9.210938 -12.972656 9.609375 -12.796875 C 10.015625 -12.628906 10.347656 -12.460938 10.609375 -12.296875 Z M 10.609375 -12.296875 "/></g></g></g><g fill="#ffffff" fill-opacity="1"><g transform="translate(109.749008, 32.206614)"><g><path d="M 12.65625 -6.890625 C 13.1875 -7.015625 13.644531 -6.988281 14.03125 -6.8125 C 14.425781 -6.632812 14.734375 -6.351562 14.953125 -5.96875 C 15.171875 -5.59375 15.285156 -5.179688 15.296875 -4.734375 C 15.304688 -4.285156 15.191406 -3.878906 14.953125 -3.515625 C 14.710938 -3.160156 14.328125 -2.910156 13.796875 -2.765625 C 12.828125 -2.492188 11.832031 -2.285156 10.8125 -2.140625 C 9.800781 -2.003906 8.796875 -2 7.796875 -2.125 C 6.804688 -2.257812 5.859375 -2.582031 4.953125 -3.09375 C 3.773438 -3.757812 2.878906 -4.679688 2.265625 -5.859375 C 1.648438 -7.035156 1.367188 -8.304688 1.421875 -9.671875 C 1.492188 -11.003906 1.820312 -12.273438 2.40625 -13.484375 C 3 -14.703125 3.785156 -15.78125 4.765625 -16.71875 C 5.742188 -17.65625 6.851562 -18.375 8.09375 -18.875 C 9.332031 -19.375 10.628906 -19.570312 11.984375 -19.46875 C 12.523438 -19.425781 12.960938 -19.25 13.296875 -18.9375 C 13.628906 -18.625 13.847656 -18.25 13.953125 -17.8125 C 14.054688 -17.375 14.054688 -16.945312 13.953125 -16.53125 C 13.847656 -16.113281 13.628906 -15.773438 13.296875 -15.515625 C 12.960938 -15.265625 12.523438 -15.15625 11.984375 -15.1875 C 10.992188 -15.269531 10.054688 -15.085938 9.171875 -14.640625 C 8.296875 -14.191406 7.550781 -13.570312 6.9375 -12.78125 C 6.332031 -12 5.945312 -11.113281 5.78125 -10.125 C 5.601562 -9.269531 5.640625 -8.582031 5.890625 -8.0625 C 6.148438 -7.539062 6.535156 -7.148438 7.046875 -6.890625 C 7.566406 -6.640625 8.148438 -6.488281 8.796875 -6.4375 C 9.453125 -6.394531 10.117188 -6.414062 10.796875 -6.5 C 11.472656 -6.582031 12.09375 -6.710938 12.65625 -6.890625 Z M 12.65625 -6.890625 "/></g></g></g><g fill="#ffffff" fill-opacity="1"><g transform="translate(126.477857, 32.206614)"><g><path d="M 12.203125 -19.921875 C 12.296875 -20.472656 12.515625 -20.867188 12.859375 -21.109375 C 13.203125 -21.359375 13.585938 -21.476562 14.015625 -21.46875 C 14.441406 -21.457031 14.847656 -21.34375 15.234375 -21.125 C 15.617188 -20.90625 15.921875 -20.597656 16.140625 -20.203125 C 16.359375 -19.804688 16.410156 -19.332031 16.296875 -18.78125 C 15.273438 -13.5625 14.578125 -8.296875 14.203125 -2.984375 C 14.160156 -2.429688 13.984375 -1.988281 13.671875 -1.65625 C 13.359375 -1.332031 12.984375 -1.117188 12.546875 -1.015625 C 12.109375 -0.910156 11.6875 -0.910156 11.28125 -1.015625 C 10.875 -1.117188 10.535156 -1.332031 10.265625 -1.65625 C 10.003906 -1.988281 9.894531 -2.429688 9.9375 -2.984375 C 9.988281 -3.878906 10.054688 -4.765625 10.140625 -5.640625 C 10.222656 -6.523438 10.3125 -7.414062 10.40625 -8.3125 L 6.515625 -8.3125 C 6.378906 -7.1875 6.242188 -6.0625 6.109375 -4.9375 C 5.984375 -3.8125 5.851562 -2.675781 5.71875 -1.53125 C 5.644531 -1 5.445312 -0.570312 5.125 -0.25 C 4.800781 0.0703125 4.421875 0.285156 3.984375 0.390625 C 3.546875 0.503906 3.117188 0.507812 2.703125 0.40625 C 2.285156 0.300781 1.953125 0.0859375 1.703125 -0.234375 C 1.460938 -0.566406 1.378906 -1 1.453125 -1.53125 C 1.617188 -3.101562 1.796875 -4.671875 1.984375 -6.234375 C 2.179688 -7.804688 2.363281 -9.367188 2.53125 -10.921875 C 2.625 -11.679688 2.71875 -12.4375 2.8125 -13.1875 C 2.90625 -13.9375 2.992188 -14.691406 3.078125 -15.453125 C 3.148438 -16.117188 3.207031 -16.820312 3.25 -17.5625 C 3.300781 -18.300781 3.453125 -18.988281 3.703125 -19.625 C 3.890625 -20.144531 4.175781 -20.515625 4.5625 -20.734375 C 4.957031 -20.960938 5.375 -21.070312 5.8125 -21.0625 C 6.257812 -21.0625 6.671875 -20.953125 7.046875 -20.734375 C 7.429688 -20.515625 7.703125 -20.210938 7.859375 -19.828125 C 8.023438 -19.453125 8.003906 -19.007812 7.796875 -18.5 C 7.566406 -17.875 7.429688 -17.191406 7.390625 -16.453125 C 7.359375 -15.722656 7.304688 -15.035156 7.234375 -14.390625 C 7.191406 -14.085938 7.148438 -13.785156 7.109375 -13.484375 C 7.078125 -13.179688 7.039062 -12.878906 7 -12.578125 L 10.953125 -12.578125 C 11.117188 -13.804688 11.304688 -15.03125 11.515625 -16.25 C 11.734375 -17.476562 11.960938 -18.703125 12.203125 -19.921875 Z M 12.203125 -19.921875 "/></g></g></g><g fill="#ffffff" fill-opacity="1"><g transform="translate(39.921813, 46.051093)"><g><path d="M 2.453125 0 L 1.875 0 L 1.875 -1.96875 L 0.125 -5.03125 L 0.78125 -5.03125 L 2.140625 -2.671875 L 2.21875 -2.671875 L 3.5625 -5.03125 L 4.203125 -5.03125 L 2.453125 -1.96875 Z M 2.453125 0 "/></g></g></g><g fill="#ffffff" fill-opacity="1"><g transform="translate(44.83397, 46.051093)"><g><path d="M 2.765625 0.078125 C 2.328125 0.078125 1.9375 -0.015625 1.59375 -0.203125 C 1.257812 -0.390625 0.992188 -0.675781 0.796875 -1.0625 C 0.597656 -1.457031 0.5 -1.941406 0.5 -2.515625 C 0.5 -3.085938 0.597656 -3.566406 0.796875 -3.953125 C 0.992188 -4.335938 1.257812 -4.625 1.59375 -4.8125 C 1.9375 -5.007812 2.328125 -5.109375 2.765625 -5.109375 C 3.191406 -5.109375 3.578125 -5.007812 3.921875 -4.8125 C 4.265625 -4.625 4.53125 -4.335938 4.71875 -3.953125 C 4.914062 -3.566406 5.015625 -3.085938 5.015625 -2.515625 C 5.015625 -1.941406 4.914062 -1.457031 4.71875 -1.0625 C 4.53125 -0.675781 4.265625 -0.390625 3.921875 -0.203125 C 3.578125 -0.015625 3.191406 0.078125 2.765625 0.078125 Z M 2.765625 -0.46875 C 3.285156 -0.46875 3.6875 -0.628906 3.96875 -0.953125 C 4.25 -1.285156 4.390625 -1.804688 4.390625 -2.515625 C 4.390625 -3.222656 4.25 -3.738281 3.96875 -4.0625 C 3.6875 -4.394531 3.285156 -4.5625 2.765625 -4.5625 C 1.679688 -4.5625 1.140625 -3.878906 1.140625 -2.515625 C 1.140625 -1.148438 1.679688 -0.46875 2.765625 -0.46875 Z M 2.765625 -0.46875 "/></g></g></g><g fill="#ffffff" fill-opacity="1"><g transform="translate(50.940617, 46.051093)"><g><path d="M 2.59375 0.078125 C 1.976562 0.078125 1.507812 -0.078125 1.1875 -0.390625 C 0.875 -0.703125 0.71875 -1.171875 0.71875 -1.796875 L 0.71875 -5.03125 L 1.3125 -5.03125 L 1.3125 -1.796875 C 1.3125 -1.359375 1.414062 -1.023438 1.625 -0.796875 C 1.832031 -0.578125 2.15625 -0.46875 2.59375 -0.46875 C 3.445312 -0.46875 3.875 -0.910156 3.875 -1.796875 L 3.875 -5.03125 L 4.46875 -5.03125 L 4.46875 -1.796875 C 4.46875 -1.171875 4.304688 -0.703125 3.984375 -0.390625 C 3.671875 -0.078125 3.207031 0.078125 2.59375 0.078125 Z M 2.59375 0.078125 "/></g></g></g><g fill="#ffffff" fill-opacity="1"><g transform="translate(56.713358, 46.051093)"><g><path d="M 0.765625 0 L 0.765625 -5.03125 L 2.59375 -5.03125 C 2.925781 -5.03125 3.207031 -4.972656 3.4375 -4.859375 C 3.664062 -4.753906 3.835938 -4.597656 3.953125 -4.390625 C 4.066406 -4.191406 4.125 -3.953125 4.125 -3.671875 C 4.125 -3.359375 4.046875 -3.097656 3.890625 -2.890625 C 3.734375 -2.691406 3.488281 -2.539062 3.15625 -2.4375 L 3.15625 -2.375 C 3.320312 -2.3125 3.457031 -2.207031 3.5625 -2.0625 C 3.664062 -1.925781 3.757812 -1.722656 3.84375 -1.453125 L 4.3125 0 L 3.703125 0 L 3.203125 -1.53125 C 3.140625 -1.71875 3.066406 -1.863281 2.984375 -1.96875 C 2.910156 -2.070312 2.8125 -2.144531 2.6875 -2.1875 C 2.570312 -2.226562 2.425781 -2.25 2.25 -2.25 L 1.359375 -2.25 L 1.359375 0 Z M 2.578125 -2.765625 C 2.890625 -2.765625 3.117188 -2.835938 3.265625 -2.984375 C 3.421875 -3.128906 3.5 -3.347656 3.5 -3.640625 C 3.5 -3.941406 3.421875 -4.164062 3.265625 -4.3125 C 3.117188 -4.457031 2.890625 -4.53125 2.578125 -4.53125 L 1.359375 -4.53125 L 1.359375 -2.765625 Z M 2.578125 -2.765625 "/></g></g></g><g fill="#ffffff" fill-opacity="1"><g transform="translate(61.959422, 46.051093)"><g/></g></g><g fill="#ffffff" fill-opacity="1"><g transform="translate(64.272615, 46.051093)"><g><path d="M 1.34375 0 L 0.765625 0 L 0.765625 -5.03125 L 1.484375 -5.03125 L 3.9375 -1.1875 L 4.03125 -1.203125 L 4.03125 -5.03125 L 4.59375 -5.03125 L 4.59375 0 L 3.984375 0 L 1.421875 -4.109375 L 1.34375 -4.09375 Z M 1.34375 0 "/></g></g></g><g fill="#ffffff" fill-opacity="1"><g transform="translate(70.224356, 46.051093)"><g><path d="M 1.359375 -2.375 L 1.359375 -0.484375 L 3.921875 -0.484375 L 3.921875 0 L 0.765625 0 L 0.765625 -5.03125 L 3.859375 -5.03125 L 3.859375 -4.546875 L 1.359375 -4.546875 L 1.359375 -2.859375 L 3.5625 -2.859375 L 3.5625 -2.375 Z M 1.359375 -2.375 "/></g></g></g><g fill="#ffffff" fill-opacity="1"><g transform="translate(75.060783, 46.051093)"><g><path d="M 0.84375 0 L 0.203125 0 L 1.765625 -2.59375 L 0.265625 -5.03125 L 0.9375 -5.03125 L 2.203125 -2.984375 L 2.28125 -2.984375 L 3.5625 -5.03125 L 4.203125 -5.03125 L 2.703125 -2.59375 L 4.265625 0 L 3.609375 0 L 2.265625 -2.171875 L 2.1875 -2.171875 Z M 0.84375 0 "/></g></g></g><g fill="#ffffff" fill-opacity="1"><g transform="translate(80.114077, 46.051093)"><g><path d="M 3.921875 -5.03125 L 3.921875 -4.53125 L 2.34375 -4.53125 L 2.34375 0 L 1.765625 0 L 1.765625 -4.53125 L 0.1875 -4.53125 L 0.1875 -5.03125 Z M 3.921875 -5.03125 "/></g></g></g><g fill="#ffffff" fill-opacity="1"><g transform="translate(84.809368, 46.051093)"><g/></g></g><g fill="#ffffff" fill-opacity="1"><g transform="translate(87.122563, 46.051093)"><g><path d="M 1.3125 0 L 0.765625 0 L 0.765625 -5.03125 L 1.640625 -5.03125 L 3.15625 -0.765625 L 3.234375 -0.765625 L 4.765625 -5.03125 L 5.609375 -5.03125 L 5.609375 0 L 5.046875 0 L 5.046875 -4.109375 L 4.953125 -4.125 L 3.46875 0 L 2.890625 0 L 1.390625 -4.125 L 1.3125 -4.109375 Z M 1.3125 0 "/></g></g></g><g fill="#ffffff" fill-opacity="1"><g transform="translate(94.079468, 46.051093)"><g><path d="M 2.765625 0.078125 C 2.328125 0.078125 1.9375 -0.015625 1.59375 -0.203125 C 1.257812 -0.390625 0.992188 -0.675781 0.796875 -1.0625 C 0.597656 -1.457031 0.5 -1.941406 0.5 -2.515625 C 0.5 -3.085938 0.597656 -3.566406 0.796875 -3.953125 C 0.992188 -4.335938 1.257812 -4.625 1.59375 -4.8125 C 1.9375 -5.007812 2.328125 -5.109375 2.765625 -5.109375 C 3.191406 -5.109375 3.578125 -5.007812 3.921875 -4.8125 C 4.265625 -4.625 4.53125 -4.335938 4.71875 -3.953125 C 4.914062 -3.566406 5.015625 -3.085938 5.015625 -2.515625 C 5.015625 -1.941406 4.914062 -1.457031 4.71875 -1.0625 C 4.53125 -0.675781 4.265625 -0.390625 3.921875 -0.203125 C 3.578125 -0.015625 3.191406 0.078125 2.765625 0.078125 Z M 2.765625 -0.46875 C 3.285156 -0.46875 3.6875 -0.628906 3.96875 -0.953125 C 4.25 -1.285156 4.390625 -1.804688 4.390625 -2.515625 C 4.390625 -3.222656 4.25 -3.738281 3.96875 -4.0625 C 3.6875 -4.394531 3.285156 -4.5625 2.765625 -4.5625 C 1.679688 -4.5625 1.140625 -3.878906 1.140625 -2.515625 C 1.140625 -1.148438 1.679688 -0.46875 2.765625 -0.46875 Z M 2.765625 -0.46875 "/></g></g></g><g fill="#ffffff" fill-opacity="1"><g transform="translate(100.186117, 46.051093)"><g><path d="M 2.734375 0 L 1.96875 0 L 0.21875 -5.03125 L 0.84375 -5.03125 L 2.328125 -0.734375 L 2.40625 -0.734375 L 3.875 -5.03125 L 4.484375 -5.03125 Z M 2.734375 0 "/></g></g></g><g fill="#ffffff" fill-opacity="1"><g transform="translate(105.47349, 46.051093)"><g><path d="M 1.359375 0 L 0.765625 0 L 0.765625 -5.03125 L 1.359375 -5.03125 Z M 1.359375 0 "/></g></g></g><g fill="#ffffff" fill-opacity="1"><g transform="translate(108.175669, 46.051093)"><g><path d="M 1.359375 -2.375 L 1.359375 -0.484375 L 3.921875 -0.484375 L 3.921875 0 L 0.765625 0 L 0.765625 -5.03125 L 3.859375 -5.03125 L 3.859375 -4.546875 L 1.359375 -4.546875 L 1.359375 -2.859375 L 3.5625 -2.859375 L 3.5625 -2.375 Z M 1.359375 -2.375 "/></g></g></g><g fill="#ffffff" fill-opacity="1"><g transform="translate(113.012096, 46.051093)"><g/></g></g><g fill="#ffffff" fill-opacity="1"><g transform="translate(115.325291, 46.051093)"><g><path d="M 3.71875 -5.03125 L 3.71875 -4.546875 L 1.359375 -4.546875 L 1.359375 -2.71875 L 3.484375 -2.71875 L 3.484375 -2.21875 L 1.359375 -2.21875 L 1.359375 0 L 0.765625 0 L 0.765625 -5.03125 Z M 3.71875 -5.03125 "/></g></g></g><g fill="#ffffff" fill-opacity="1"><g transform="translate(119.9001, 46.051093)"><g><path d="M 1.359375 0 L 0.765625 0 L 0.765625 -5.03125 L 1.359375 -5.03125 Z M 1.359375 0 "/></g></g></g><g fill="#ffffff" fill-opacity="1"><g transform="translate(122.60228, 46.051093)"><g><path d="M 1.34375 0 L 0.765625 0 L 0.765625 -5.03125 L 1.484375 -5.03125 L 3.9375 -1.1875 L 4.03125 -1.203125 L 4.03125 -5.03125 L 4.59375 -5.03125 L 4.59375 0 L 3.984375 0 L 1.421875 -4.109375 L 1.34375 -4.09375 Z M 1.34375 0 "/></g></g></g><g fill="#ffffff" fill-opacity="1"><g transform="translate(128.554023, 46.051093)"><g><path d="M 2.390625 -5.03125 C 2.898438 -5.03125 3.335938 -4.9375 3.703125 -4.75 C 4.066406 -4.570312 4.347656 -4.296875 4.546875 -3.921875 C 4.742188 -3.546875 4.84375 -3.078125 4.84375 -2.515625 C 4.84375 -1.953125 4.742188 -1.484375 4.546875 -1.109375 C 4.347656 -0.734375 4.066406 -0.453125 3.703125 -0.265625 C 3.335938 -0.0859375 2.898438 0 2.390625 0 L 0.765625 0 L 0.765625 -5.03125 Z M 2.328125 -0.5 C 2.742188 -0.5 3.085938 -0.5625 3.359375 -0.6875 C 3.640625 -0.820312 3.851562 -1.035156 4 -1.328125 C 4.144531 -1.628906 4.21875 -2.023438 4.21875 -2.515625 C 4.21875 -3.003906 4.144531 -3.394531 4 -3.6875 C 3.851562 -3.988281 3.640625 -4.203125 3.359375 -4.328125 C 3.085938 -4.460938 2.742188 -4.53125 2.328125 -4.53125 L 1.359375 -4.53125 L 1.359375 -0.5 Z M 2.328125 -0.5 "/></g></g></g><g fill="#ffffff" fill-opacity="1"><g transform="translate(134.488555, 46.051093)"><g><path d="M 1.359375 -2.375 L 1.359375 -0.484375 L 3.921875 -0.484375 L 3.921875 0 L 0.765625 0 L 0.765625 -5.03125 L 3.859375 -5.03125 L 3.859375 -4.546875 L 1.359375 -4.546875 L 1.359375 -2.859375 L 3.5625 -2.859375 L 3.5625 -2.375 Z M 1.359375 -2.375 "/></g></g></g><g fill="#ffffff" fill-opacity="1"><g transform="translate(139.324982, 46.051093)"><g><path d="M 0.765625 0 L 0.765625 -5.03125 L 2.59375 -5.03125 C 2.925781 -5.03125 3.207031 -4.972656 3.4375 -4.859375 C 3.664062 -4.753906 3.835938 -4.597656 3.953125 -4.390625 C 4.066406 -4.191406 4.125 -3.953125 4.125 -3.671875 C 4.125 -3.359375 4.046875 -3.097656 3.890625 -2.890625 C 3.734375 -2.691406 3.488281 -2.539062 3.15625 -2.4375 L 3.15625 -2.375 C 3.320312 -2.3125 3.457031 -2.207031 3.5625 -2.0625 C 3.664062 -1.925781 3.757812 -1.722656 3.84375 -1.453125 L 4.3125 0 L 3.703125 0 L 3.203125 -1.53125 C 3.140625 -1.71875 3.066406 -1.863281 2.984375 -1.96875 C 2.910156 -2.070312 2.8125 -2.144531 2.6875 -2.1875 C 2.570312 -2.226562 2.425781 -2.25 2.25 -2.25 L 1.359375 -2.25 L 1.359375 0 Z M 2.578125 -2.765625 C 2.890625 -2.765625 3.117188 -2.835938 3.265625 -2.984375 C 3.421875 -3.128906 3.5 -3.347656 3.5 -3.640625 C 3.5 -3.941406 3.421875 -4.164062 3.265625 -4.3125 C 3.117188 -4.457031 2.890625 -4.53125 2.578125 -4.53125 L 1.359375 -4.53125 L 1.359375 -2.765625 Z M 2.578125 -2.765625 "/></g></g></g></svg>