<svg width="100" height="30" viewBox="0 0 100 30" fill="none" xmlns="http://www.w3.org/2000/svg">
  <path d="M36.25 10C38.75 10 40.625 11.875 40.625 14.375C40.625 16.875 38.75 18.75 36.25 18.75H32.5V25H30V10H36.25ZM36.25 16.25C37.375 16.25 38.125 15.5 38.125 14.375C38.125 13.25 37.375 12.5 36.25 12.5H32.5V16.25H36.25Z" fill="black"/>
  <path d="M42.5 18.75C42.5 15.625 45 13.125 48.125 13.125C51.25 13.125 53.75 15.625 53.75 18.75C53.75 21.875 51.25 24.375 48.125 24.375C45 24.375 42.5 21.875 42.5 18.75ZM45 18.75C45 20.5 46.375 21.875 48.125 21.875C49.875 21.875 51.25 20.5 51.25 18.75C51.25 17 49.875 15.625 48.125 15.625C46.375 15.625 45 17 45 18.75Z" fill="black"/>
  <path d="M67.5 13.75V24.375H65V22.5C64.375 23.75 62.875 24.375 61.25 24.375C58.75 24.375 56.875 22.5 56.875 19.375V13.75H59.375V19.375C59.375 21.25 60.5 22.5 62.125 22.5C63.875 22.5 65 21.25 65 19.375V13.75H67.5Z" fill="black"/>
  <path d="M85 13.75V24.375H82.5V22.5C81.875 23.75 80.375 24.375 78.75 24.375C76.25 24.375 74.375 22.5 74.375 19.375V13.75H76.875V19.375C76.875 21.25 78 22.5 79.625 22.5C81.375 22.5 82.5 21.25 82.5 19.375V13.75H85Z" fill="black"/>
  <path d="M90 10.625C90.875 10.625 91.625 11.375 91.625 12.25C91.625 13.125 90.875 13.875 90 13.875C89.125 13.875 88.375 13.125 88.375 12.25C88.375 11.375 89.125 10.625 90 10.625ZM88.75 13.75H91.25V24.375H88.75V13.75Z" fill="black"/>
  <path d="M17.5 7.5C20 7.5 20.625 8.75 22.5 8.75C24.375 8.75 25.625 6.25 25.625 6.25C25.625 6.25 23.125 5 21.25 5C19.375 5 17.5 6.875 17.5 6.875C17.5 6.875 15 5 13.125 5C11.25 5 8.75 6.25 8.75 6.25C8.75 6.25 10 8.75 11.875 8.75C13.75 8.75 15 7.5 17.5 7.5Z" fill="black"/>
  <path d="M17.5 10C13.75 10 10.625 13.125 10.625 16.875C10.625 20.625 13.75 25 17.5 25C21.25 25 24.375 20.625 24.375 16.875C24.375 13.125 21.25 10 17.5 10ZM17.5 22.5C15 22.5 13.125 20 13.125 16.875C13.125 13.75 15 11.25 17.5 11.25C20 11.25 21.875 13.75 21.875 16.875C21.875 20 20 22.5 17.5 22.5Z" fill="black"/>
</svg> 