<svg width="100" height="30" viewBox="0 0 100 30" fill="none" xmlns="http://www.w3.org/2000/svg">
  <path d="M37.7778 5C25.9259 5 15 11.6667 15 15C15 19.1667 28.5185 25 37.7778 25C47.963 25 60.7407 19.1667 60.7407 15C60.7407 11.6667 50.5556 5 37.7778 5ZM37.7778 22.5C23.8889 22.5 17.5926 16.6667 17.5926 15C17.5926 13.3333 23.8889 7.5 37.7778 7.5C50.5556 7.5 58.1481 13.3333 58.1481 15C58.1481 16.6667 50.5556 22.5 37.7778 22.5Z" fill="#0063E5"/>
  <path d="M73.3333 10H66.6667V15H61.6667V10H55V21.6667H61.6667V16.6667H66.6667V21.6667H73.3333V10Z" fill="#0063E5"/>
  <path d="M85 10H80V21.6667H85V10Z" fill="#0063E5"/>
  <path d="M95 10H82.5V13.3333H86.6667V21.6667H91.6667V13.3333H95V10Z" fill="#0063E5"/>
</svg> 