<svg width="100" height="30" viewBox="0 0 100 30" fill="none" xmlns="http://www.w3.org/2000/svg">
  <path d="M20 5H10V25H20C25.5228 25 30 20.5228 30 15C30 9.47715 25.5228 5 20 5Z" fill="#7B4CDB"/>
  <path d="M20 9H14V21H20C23.3137 21 26 18.3137 26 15C26 11.6863 23.3137 9 20 9Z" fill="white"/>
  <path d="M40 5H34V25H40V17H45V25H51V5H45V11H40V5Z" fill="#7B4CDB"/>
  <path d="M65 5C59.4772 5 55 9.47715 55 15C55 20.5228 59.4772 25 65 25C70.5228 25 75 20.5228 75 15C75 9.47715 70.5228 5 65 5ZM65 21C61.6863 21 59 18.3137 59 15C59 11.6863 61.6863 9 65 9C68.3137 9 71 11.6863 71 15C71 18.3137 68.3137 21 65 21Z" fill="#7B4CDB"/>
  <path d="M85 5L78 25H84L85.5 20H90.5L92 25H98L91 5H85ZM86.6667 16L88 12L89.3333 16H86.6667Z" fill="#7B4CDB"/>
</svg> 