<svg width="100" height="30" viewBox="0 0 100 30" fill="none" xmlns="http://www.w3.org/2000/svg">
  <path d="M35.7143 8.57143H27.1429V21.4286H31.4286V17.1429H35.7143C38.5714 17.1429 40.7143 15 40.7143 12.8571C40.7143 10.7143 38.5714 8.57143 35.7143 8.57143Z" fill="#1CE783"/>
  <path d="M11.4286 8.57143H15.7143V21.4286H11.4286V8.57143Z" fill="#1CE783"/>
  <path d="M42.8571 21.4286H47.1429V8.57143H42.8571V21.4286Z" fill="#1CE783"/>
  <path d="M68.5714 8.57143V14.2857C68.5714 15.7143 67.1429 17.1429 65.7143 17.1429C64.2857 17.1429 62.8571 15.7143 62.8571 14.2857V8.57143H58.5714V14.2857C58.5714 18.5714 61.4286 21.4286 65.7143 21.4286C70 21.4286 72.8571 18.5714 72.8571 14.2857V8.57143H68.5714Z" fill="#1CE783"/>
  <path d="M25 8.57143H20.7143V21.4286H25V8.57143Z" fill="#1CE783"/>
  <path d="M85.7143 8.57143H77.1429V21.4286H81.4286V18.5714H85.7143C87.8571 18.5714 89.2857 17.1429 89.2857 15.7143C89.2857 14.2857 87.8571 12.8571 85.7143 12.8571H82.8571V11.4286H85.7143C87.8571 11.4286 89.2857 10 89.2857 8.57143H85.7143Z" fill="#1CE783"/>
</svg> 