<svg width="100" height="30" viewBox="0 0 100 30" fill="none" xmlns="http://www.w3.org/2000/svg">
  <path d="M60.3621 9.46154H68.9655V11.1538H60.3621V17.6923C60.3621 18.6154 60.7759 19.5385 61.6034 20.0769C62.4309 20.6154 63.2584 20.7692 64.5 20.7692C65.3276 20.7692 66.1551 20.6154 67.1292 20.3077V22.9231C66.1551 23.2308 65.0345 23.3846 63.7928 23.3846C62.1379 23.3846 60.7759 22.9231 59.535 21.8462C58.1722 20.7692 57.6121 18.9231 57.6121 17.0769V11.1538H55V9.46154H57.6121V5H60.3621V9.46154Z" fill="#00A8E1"/>
  <path d="M75.0862 9.46154H77.6983V11.7692H77.8448C78.5259 10.2308 80.0343 9 82.6466 9C85.5431 9 87.1983 10.8462 87.1983 13.7692V23.3846H84.4483V14.2308C84.4483 12.3077 83.4741 11.3077 81.5259 11.3077C79.4312 11.3077 77.8362 12.9231 77.8362 15.1538V23.3846H75.0862V9.46154Z" fill="#00A8E1"/>
  <path d="M9 17.2308L18.2931 21.3077V18.8462L10.8017 15.6154V15.4615L18.2931 12.2308V9.76923L9 13.8462V17.2308Z" fill="#00A8E1"/>
  <path d="M21.6121 9.46154H24.3621V23.3846H21.6121V9.46154Z" fill="#00A8E1"/>
  <path d="M33.7931 9C38.6207 9 41.6638 12.4615 41.6638 16.4615C41.6638 20.4615 38.6207 23.8462 33.7931 23.8462C28.9655 23.8462 25.9225 20.3846 25.9225 16.4615C25.9225 12.3846 28.9655 9 33.7931 9ZM33.7931 21.4615C37.2586 21.4615 38.9138 19.0769 38.9138 16.4615C38.9138 13.8462 37.2586 11.3846 33.7931 11.3846C30.3276 11.3846 28.6724 13.8462 28.6724 16.4615C28.6724 19.0769 30.3276 21.4615 33.7931 21.4615Z" fill="#00A8E1"/>
  <path d="M49.3966 9.46154C50.2241 9.46154 51.0517 9.61538 51.8793 9.76923V12.2308C51.1983 12.0769 50.5172 11.9231 49.6896 11.9231C47.5948 11.9231 45.3536 13.0769 45.3536 16.3077V23.3846H42.6035V9.46154H45.2155V11.9231H45.362C46.1896 10.2308 47.7155 9.46154 49.3966 9.46154Z" fill="#00A8E1"/>
  <path d="M92.8276 9.46154H95.4397V11.7692H95.5861C96.2672 10.2308 97.7756 9 100.388 9C103.284 9 104.939 10.8462 104.939 13.7692V23.3846H102.19V14.2308C102.19 12.3077 101.215 11.3077 99.2672 11.3077C97.1724 11.3077 95.5775 12.9231 95.5775 15.1538V23.3846H92.8276V9.46154Z" fill="#00A8E1"/>
</svg> 